mtllib cube3.mtl

v -0.500000 0.500000 0.500000
v -0.500000 -0.500000 0.500000
v 0.500000 -0.500000 0.500000
v 0.500000 0.500000 0.500000
v -0.500000 0.500000 -0.500000
v -0.500000 -0.500000 -0.500000
v 0.500000 -0.500000 -0.500000
v 0.500000 0.500000 -0.500000

vn 1.0 0.0 0.0
vn 0.0 1.0 0.0
vn 0.0 0.0 1.0
vn -1.0 0.0 0.0
vn 0.0 -1.0 0.0
vn 0.0 0.0 -1.0

vt 1.0 1.0
vt 1.0 0.0
vt 0.0 0.0
vt 0.0 1.0

# 8 vertices
g front
usemtl front
f 1/4/3 2/3/3 3/2/3 4/1/3
g back
usemtl back
f 8/4/6 7/3/6 6/2/6 5/1/6
g right
usemtl right
f 4/4/1 3/3/1 7/2/1 8/1/1
g top
usemtl top
f 5/4/2 1/3/2 4/2/2 8/1/2
g left
usemtl left
f 5/4/4 6/3/4 2/2/4 1/1/4
g bottom
usemtl bottom
f 2/4/5 6/3/5 7/2/5 3/1/5
# 6 elements
